<?xml version="1.0" encoding="UTF-8" standalone="no"?>
<!-- Created with Inkscape (http://www.inkscape.org/) -->

<svg
   width="210mm"
   height="297mm"
   viewBox="0 0 210 297"
   version="1.1"
   id="svg5"
   xml:space="preserve"
   sodipodi:docname="skull.svg"
   inkscape:version="1.2.2 (b0a8486541, 2022-12-01)"
   xmlns:inkscape="http://www.inkscape.org/namespaces/inkscape"
   xmlns:sodipodi="http://sodipodi.sourceforge.net/DTD/sodipodi-0.dtd"
   xmlns="http://www.w3.org/2000/svg"
   xmlns:svg="http://www.w3.org/2000/svg"><sodipodi:namedview
     id="namedview7"
     pagecolor="#ffffff"
     bordercolor="#666666"
     borderopacity="1.0"
     inkscape:showpageshadow="2"
     inkscape:pageopacity="0.0"
     inkscape:pagecheckerboard="0"
     inkscape:deskcolor="#d1d1d1"
     inkscape:document-units="mm"
     showgrid="false"
     inkscape:zoom="0.89174383"
     inkscape:cx="610.04067"
     inkscape:cy="548.92446"
     inkscape:window-width="2560"
     inkscape:window-height="1371"
     inkscape:window-x="1920"
     inkscape:window-y="32"
     inkscape:window-maximized="1"
     inkscape:current-layer="layer1" /><defs
     id="defs2" /><g
     inkscape:label="Layer 1"
     inkscape:groupmode="layer"
     id="layer1"><path
       style="fill:#221e1f;fill-opacity:1;stroke-width:0.86498"
       d="m 97.869618,196.52041 -2.841105,-2.59495 h -0.846624 -0.846626 l -2.595796,1.91919 -2.595796,1.91914 -1.477847,-1.06045 -1.477839,-1.06047 -1.954767,-1.00145 -1.954762,-1.0014 -1.993404,1.87271 -1.993406,1.8727 -0.809235,-0.0308 -0.809236,-0.0308 -2.354205,-1.92807 -2.354215,-1.92807 -0.103853,-11.62251 -0.103854,-11.62257 -11.751333,-11.38353 -11.751333,-11.38354 1.945987,-8.12035 1.945986,-8.12035 -3.01506,-10.9628 -3.015063,-10.96282 -0.962737,-4.63746 -0.962725,-4.63744 3.084357,-13.809159 3.084345,-13.809162 0.82221,-3.087778 0.822211,-3.08784 9.081709,-5.409802 9.081704,-5.409853 14.479818,-6.855821 14.479814,-6.855822 h 2.715432 2.71546 l 12.37662,5.206548 12.37661,5.206549 10.56131,6.087655 10.56133,6.087656 1.43613,1.050137 1.43613,1.050136 4.21705,16.984187 4.217,16.984199 -3.8749,15.00186 -3.87496,15.00186 1.50104,8.4842 1.50109,8.48431 -11.83139,11.854 -11.83138,11.85411 -0.0113,11.23363 -0.0113,11.23356 -3.00459,1.94622 -3.00461,1.94621 h -0.74304 -0.74306 l -1.5656,-1.72999 -1.56559,-1.72992 h -0.86552 -0.86552 l -2.76771,2.11099 -2.76772,2.11105 -3.19007,-2.1677 -3.19007,-2.16769 -3.02003,2.65159 -3.02002,2.65165 h -0.64211 -0.64212 l -2.841112,-2.59494 z m 9.591682,-37.23975 3.24368,-0.90078 v -2.41892 -2.41885 l -1.73376,-5.03922 -1.73374,-5.03925 -2.68133,-4.17853 -2.68134,-4.17848 -0.55858,0.0357 -0.55856,0.0357 -4.266854,6.2238 -4.266865,6.22378 -0.05803,5.58128 -0.05803,5.58123 2.162455,0.61411 2.162454,0.61416 3.89242,0.0812 3.89242,0.0812 3.24369,-0.90082 z m -15.770921,-22.90087 1.886077,-3.05173 0.463413,-3.45506 0.463412,-3.455 -1.566215,-1.73065 -1.566224,-1.73064 -4.634123,-1.34719 -4.634127,-1.34717 -5.203064,0.0256 -5.203059,0.0256 -1.685817,0.53503 -1.685817,0.53509 -0.420862,1.88854 -0.420863,1.88859 -0.229866,3.38804 -0.229919,3.38804 2.906567,1.72088 2.906566,1.72095 4.878277,2.00659 4.878278,2.00664 3.605627,0.0204 3.605629,0.0204 1.886083,-3.05178 z m 29.568051,2.07918 4.58373,-0.97255 4.00073,-2.01476 4.00073,-2.01471 0.47241,-1.23112 0.47239,-1.23108 -0.48639,-3.62638 -0.4864,-3.62638 -1.95157,-1.27874 -1.95155,-1.27872 -8.7874,0.90174 -8.7874,0.9018 -1.57958,0.84534 -1.5796,0.84536 -0.55233,1.43932 -0.55231,1.43933 1.81287,4.84535 1.81286,4.8453 0.90605,1.09177 0.90606,1.09172 h 1.58148 1.58147 z"
       id="path744"
       inkscape:export-filename="src/assets/outpost/fh-skull-bw-icon.png"
       inkscape:export-xdpi="96"
       inkscape:export-ydpi="96" /><rect
       style="fill:none;fill-opacity:1;stroke-width:1.5875;stroke-dashoffset:20"
       id="rect5840"
       width="171.1216"
       height="168.9868"
       x="16.404591"
       y="35.909184"
       ry="160"
       rx="0" /></g></svg>
