<?xml version="1.0" encoding="UTF-8" standalone="no"?>
<!-- Created with Inkscape (http://www.inkscape.org/) -->

<svg
   width="512"
   height="512"
   viewBox="0 0 135.46667 135.46667"
   version="1.1"
   id="svg135"
   xml:space="preserve"
   inkscape:version="1.2.2 (1:1.2.2+202212051552+b0a8486541)"
   sodipodi:docname="logo.svg"
   inkscape:export-filename="logo-192.png"
   inkscape:export-xdpi="36"
   inkscape:export-ydpi="36"
   xmlns:inkscape="http://www.inkscape.org/namespaces/inkscape"
   xmlns:sodipodi="http://sodipodi.sourceforge.net/DTD/sodipodi-0.dtd"
   xmlns="http://www.w3.org/2000/svg"
   xmlns:svg="http://www.w3.org/2000/svg"><sodipodi:namedview
     id="namedview137"
     pagecolor="#ffffff"
     bordercolor="#000000"
     borderopacity="0.25"
     inkscape:showpageshadow="2"
     inkscape:pageopacity="0.0"
     inkscape:pagecheckerboard="0"
     inkscape:deskcolor="#d1d1d1"
     inkscape:document-units="mm"
     showgrid="false"
     inkscape:zoom="0.64693624"
     inkscape:cx="162.30348"
     inkscape:cy="837.02221"
     inkscape:window-width="2560"
     inkscape:window-height="1376"
     inkscape:window-x="0"
     inkscape:window-y="27"
     inkscape:window-maximized="1"
     inkscape:current-layer="layer1" /><defs
     id="defs132" /><g
     inkscape:label="Layer 1"
     inkscape:groupmode="layer"
     id="layer1"><g
       id="g3875"
       transform="matrix(1.0782462,0,0,1.0782462,-2.3041922,-3.4609554)"><path
         style="fill:#1a1a1a;stroke-width:0.115894"
         d="m 61.608493,73.877129 c -4.7554,-3.315343 -15.23745,-10.390014 -17.36506,-11.720234 l -0.50017,-0.312719 -0.0775,-3.552366 c -0.11472,-5.256977 -0.98832,-32.601693 -1.14122,-35.72176 -0.32646,-6.66166 -0.62925,-16.6199795 -0.51497,-16.936492 0.062,-0.1715978 0.25333,-0.3699439 0.42526,-0.4407692 0.54472,-0.224383 4.70986,0.091027 7.99258,0.6052463 4.6956,0.7355407 8.31678,1.0611973 12.81875,1.1528017 5.0496,0.1027475 8.60264,-0.1298217 14.0611,-0.9203889 1.36658,-0.1979266 3.04375,-0.4350691 3.72704,-0.5269834 1.65888,-0.2231477 5.91211,-0.4756848 6.29724,-0.3739009 0.16881,0.044613 0.38731,0.210297 0.48555,0.3681868 0.16359,0.2628985 0.15386,0.8210485 -0.11563,6.6282176 -0.4566,9.839292 -0.49287,10.694098 -0.73341,17.282308 -0.47151,12.914577 -0.79387,24.772412 -0.79451,29.225984 -4.6e-4,2.764219 -0.0197,3.080901 -0.19809,3.253031 -0.10871,0.104883 -1.34117,0.950856 -2.73881,1.879942 -1.39764,0.929085 -5.94632,4.019227 -10.10818,6.866982 -7.93159,5.427193 -7.97168,5.453814 -8.209,5.45 -0.0817,-0.0013 -1.57165,-0.994503 -3.31094,-2.207086 z m 7.06216,-27.109733 c 2.10646,-0.272832 4.03542,-0.722158 5.92601,-1.380383 1.97553,-0.687803 2.61926,-1.000606 2.90236,-1.410342 0.14766,-0.213705 0.38004,-1.408534 0.82631,-4.24878 0.34149,-2.173307 0.82387,-5.005757 1.07197,-6.294333 0.2481,-1.288576 0.45109,-2.445275 0.45109,-2.57044 0,-0.167277 -0.26184,0.0305 -0.98823,0.746453 -1.5291,1.507131 -3.44048,2.738853 -4.23945,2.731966 -0.32434,-0.0028 -1.21874,-0.525923 -2.37536,-1.389315 -1.29084,-0.963587 -4.16498,-4.028588 -5.83248,-6.219774 -0.77153,-1.013841 -1.43979,-1.843348 -1.48502,-1.843348 -0.0452,0 -0.2744,0.267583 -0.50926,0.594629 -3.19503,4.449013 -7.77343,8.859962 -9.19632,8.859962 -0.41251,0 -1.9614,-0.82084 -2.7841,-1.475441 -0.38487,-0.306238 -1.08369,-0.934335 -1.55293,-1.395773 -0.46924,-0.461437 -0.85316,-0.761765 -0.85316,-0.667395 0,0.09437 0.15365,0.9693 0.34143,1.944289 0.49223,2.555697 0.85683,4.709178 1.35199,7.985563 0.48469,3.207074 0.55492,3.399432 1.39257,3.814036 1.27634,0.631749 4.31099,1.580627 6.17514,1.930852 2.59442,0.487425 6.83129,0.617356 9.37744,0.287574 z"
         id="path3901" /><path
         style="fill:#231f20;fill-opacity:1;stroke:#211d1e;stroke-width:0.347135;stroke-opacity:1"
         d="M 19.641289,117.1823 7.3439137,94.775827 8.3459914,91.062768 12.244282,92.674954 23.718567,115.62417 12.147493,89.179638 l 0.870539,-2.856765 4.740485,1.076183 9.284784,26.705714 -8.886897,-27.847207 0.930945,-2.345447 4.170223,0.615762 7.545141,28.583532 -6.081274,-29.244586 1.973313,-3.308884 2.068477,2.325503 5.373227,29.576887 -3.526035,-30.292766 1.753772,-3.536232 3.355243,2.285408 1.026024,30.71785 0.283113,-31.166282 1.508798,-3.066809 2.387365,2.027027 -1.102769,31.616904 2.267058,-31.928585 1.352648,-2.304195 1.882374,2.078129 -2.374226,32.146351 3.805013,-32.591067 1.986597,-2.635077 2.550896,2.68431 -5.205178,32.460834 6.74332,-32.754625 4.537131,-2.37691 2.027162,2.879257 -10.282467,32.094838 12.30926,-2.25236 14.551758,0.8124 3.465208,0.27099 2.22886,0.23529 -5.213646,-31.124362 3.18408,-1.498152 2.510618,1.962594 3.774868,31.44946 -2.788454,-31.333334 c 0,0 2.03424,-1.709945 3.076509,-1.647495 1.007533,0.06037 2.884695,1.978898 2.884695,1.978898 l -0.484663,31.481561 1.957314,-31.272705 3.576884,-1.625685 1.91635,2.661561 -4.420785,30.006479 6.267505,-29.781318 3.048294,-1.430948 1.60357,2.212365 -8.287504,29.911041 9.844154,-29.409214 3.74019,-0.966803 0.68703,2.534846 -11.456754,28.324691 13.396714,-27.877684 4.12374,-1.023213 0.0837,3.303356 -14.18667,26.253631 15.32714,-25.407509 3.52066,-1.194167 0.10681,3.088177 -16.72482,24.623299 18.16001,-24.126765 2.57611,-0.656718 0.65395,2.751181 -18.16876,23.167652 16.27002,-19.21373 3.23878,-0.242331 -0.26237,3.072081 -16.49186,18.26523 9.13647,5.48432 c -15.14873,4.10223 -111.5191289,3.2916 -107.576038,0.72235 z"
         id="path2616"
         sodipodi:nodetypes="ccccccccccccccccccccccccccccccccccccccccccccccscccccccccccccccccccccccccccccccsc" /><rect
         style="fill:#231f20;fill-opacity:1;stroke:#211d1e;stroke-width:0.264583;stroke-opacity:1"
         id="rect3870"
         width="4.0554104"
         height="40.554104"
         x="62.927334"
         y="71.089043"
         rx="0.26458332" /></g></g></svg>
